<svg width="161" height="47" version="1.1" viewBox="0 0 42.598 12.435" xmlns="http://www.w3.org/2000/svg"><defs><filter id="a" color-interpolation-filters="sRGB"><feFlood flood-color="rgb(0,0,0)" result="flood"/><feComposite in="flood" in2="SourceGraphic" operator="in" result="composite1"/><feGaussianBlur in="composite1" result="blur" stdDeviation="0.488355"/><feOffset dx="1.20919" dy="0.749928" result="offset"/><feComposite in="SourceGraphic" in2="offset" result="composite2"/></filter></defs><g transform="translate(-52.408 -90.046)"><path transform="matrix(.26458 0 0 .26458 52.408 90.046)" d="m74.422 2.0645c-1.1433 1.6845-0.02594 3.7578-0.33008 5.625-0.95226 1.756-4.0426 1.3529-5.3535 3.0723-2.2175 1.5015-3.5476 4.2698-2.8242 6.9336 0.041651 2.1486 1.3396 4.1108 3.332 4.5234-1.6485-1.3255-2.5048-3.3615-2.2988-5.4863-0.48706-3.0113 2.2922-5.1843 4.8242-6.0762 1.725-0.25448 4.0616-0.4616 3.4707-2.8242-0.10768-1.059-0.053433-3.6955 0.98828-1.4375 0.83673 2.0373 2.7204 3.7999 5.0684 3.5332 2.2968-0.19997 5.0863 1.8751 6.9062-0.30078 1.1891-0.43943 2.2241-4.9998 2.4473-1.9062-0.12174 2.2811 1.53 3.944 3.4609 4.8184 2.5568 2.4377 2.2946 7.7545-1.3828 8.9961-4.6896 1.6715-9.7472 2.1806-14.699 2.1328-2.1425 0.32236-5.0562-1.4631-2.5137-3.4336 1.1835-1.0358 3.3725-2.9481 4.7598-2.4023-0.31317 2.5897 2.9709 3.8517 4.3691 1.6348 1.5025-1.7671-2.6482-4.0632 0.72266-4.4102 1.5033 0.48787 3.7312-1.9306 1.293-2.0801-3.6022-0.67087-7.3876-0.12833-10.994-0.63476-2.1941 1.7163 0.71169 4.2685 1.9746 2.041 1.6091-0.22688 4.243-0.68056 5.2891 0.097657-1.8604 1.6532-4.4777 1.6652-6.457 3.1641-1.6917 1.1808-3.905 3.2037-3.1484 5.4531 0.9557 1.7902 3.3311 2.01 5.1758 2.0039 2.9282 0.053216 5.8566-0.099769 8.7344-0.61914 1.903-0.13383 3.8854-0.78782 5.5742-1.3574 2.4389-0.6093 4.1996-3.0973 4.1914-5.6172 0.24979-2.8861-0.82368-6.2558-3.7266-7.4043-2.1681-1.6662-0.76132-4.7643-1.7773-6.9707-1.8239-0.69799-2.0288 2.9901-3.3301 4.043-0.81349 2.3778-3.4092 1.537-5.2051 1.1758-2.4344 0.27084-4.6415-0.65038-5.7285-2.9414-0.81667-1.2111-1.8273-2.2721-2.8125-3.3457zm8.1699 15.402c2.0196 0.064044-0.10018 2.7337-0.90625 0.89648 0.010583-0.31109 0.022931-0.86068 0.44531-0.87305 0.17304-0.021 0.3263-0.027707 0.46094-0.023437zm19.52 2.9512c-3.0685 0.59584-1.0619 4.4099 1.2598 2.6973 0.41136-0.94228-0.23725-2.4497-1.2598-2.6973zm28.881 12.188c-0.79192-0.016264-1.6061 0.14498-2.2969 0.33398-1.3678 0.28501-2.212 1.4057-3.1543 2.2949-0.87456 1.2269-0.67251 2.9231-0.67383 4.3594 0.60145 1.369 1.4135 2.6429 2.7969 3.3418 1.1739 0.22828 2.6151 0.83518 3.8477 0.35352 0.68636-0.064251 1.2204-0.44913 1.8848-0.65625 0.89582-0.93759 1.7525-1.7487 2.2715-2.959 0.54745-1.0442 0.14537-2.1363 0.05273-3.1992-0.41166-1.3957-1.332-2.4126-2.5625-3.1328-0.60395-0.52488-1.3741-0.72006-2.166-0.73633zm-77.254 0.052734c-0.10492-0.00217-0.22899 0.020371-0.37109 0.078125-1.0086 0.35134-2.6272-0.2872-3.4023 0.36328 1.3657 0.29398 1.7301 1.4075 0.92773 2.7383-0.26387 0.95133-0.36096 1.8742-0.78906 2.8066-0.20042 0.90172-1.0278 2.4372-1.3359 0.63086-0.43024-1.4335-0.99551-2.8066-1.3008-4.2617-0.85937-1.5986 0.91241-0.87772 1.2148-1.7969-0.66011-0.93157-2.2459 0.12816-3.3203-0.24024-1.455-0.050434-1.4675 0.54703-0.10742 1.1836 0.73675 1.2234 0.90365 2.7359 1.5762 4.0098h0.001953c0.071244 0.58639 0.41224 1.1517 0.43945 1.7695 1.0538 0.82394 0.33666 3.6656 1.8242 3.6191 0.64899-1.0422 0.5034-2.3006 1.125-3.332 0.37356-1.399 1.3226-2.5955 1.4531-4.0312 0.80574-0.67758 0.44855-2.474 1.7168-2.6406 0.91608 0.39281 1.0821-0.8813 0.34766-0.89648zm68.324 0c-0.10493-0.002196-0.22694 0.020387-0.36914 0.078125-1.0086 0.35134-2.6292-0.2872-3.4043 0.36328 1.3658 0.29398 1.73 1.4075 0.92774 2.7383-0.26448 0.95136-0.36133 1.8741-0.78907 2.8066-0.20071 0.90172-1.0277 2.4372-1.3359 0.63086-0.43014-1.4335-0.99566-2.8066-1.3008-4.2617-0.85924-1.5986 0.91225-0.87776 1.2148-1.7969-0.66006-0.93157-2.244 0.12816-3.3184-0.24024-1.4551-0.050441-1.4696 0.54698-0.10938 1.1836 0.73712 1.2233 0.90404 2.7361 1.5781 4.0098 0.06657 0.58545 0.41142 1.1518 0.4375 1.7695 1.0538 0.82398 0.33663 3.6656 1.8242 3.6191 0.64887-1.0424 0.50425-2.3005 1.125-3.332 0.37332-1.3991 1.3246-2.5954 1.4551-4.0312 0.80599-0.67745 0.44663-2.4739 1.7148-2.6406 0.91641 0.39341 1.0841-0.88111 0.34961-0.89648zm-33.539 0.12891c-0.44555 0.001867-0.86898 0.084666-1.2383 0.38281 1.3287 0.22411 1.8883 1.3638 1.6836 2.6035-0.031597 0.70285-0.00754 1.3991-0.16602 2.0195 0.29473 0.94186-0.074003 1.8958 0.066407 2.8457 0.92472 1.5108-2.377 2.099-1.1738 2.5215 1.218-0.007559 2.4064-0.28525 3.6133 0.21875 2.0297 0.06395 0.46306-1.043-0.68945-1.1152-0.60257-0.58942-0.21051-1.6671-0.26758-2.4668-0.65926-1.7401 1.7876-1.7556 2.2129-0.30469 1.1319 0.99024 1.4616 2.5537 2.6289 3.5059 0.4805 0.46632 1.0916 0.35916 1.6816 0.52734 1.6941 0.3326 1.656-0.77252 0.072266-1.3008-1.2568-1.0511-2.1119-2.5832-3.1777-3.8633 0.85864-0.95474 2.4063-2.1486 1.5781-3.8145-0.89799-1.6259-2.9212-1.7339-4.5684-1.709-0.71063 0.16779-1.5133-0.053892-2.2559-0.050782zm-65.475 0.00586c-0.92315 0.45358-5.2271-0.056574-2.541 0.97461 0.58156 0.79841 0.24263 1.9975 0.49805 2.9844 0.19019 1.2404-0.14388 2.4378 0.035157 3.6523 0.090678 1.1511-0.30096 2.1649-1.5195 2.4102l0.001954 0.007813 0.042968 0.18164c1.2249 0.3137 2.7541 0.054515 4.1074 0.14258 1.0451 0.084889 2.0927-0.14615 3.123-0.39258 0.94402-0.075326 1.8949-0.91426 2.4238-1.6973 0.85107-1.2834 1.051-2.9126 0.77539-4.3965-0.35841-1.317-1.2797-2.5426-2.6309-3.0801-1.32-0.55437-2.8369-0.82993-4.3164-0.78711zm45.738 0c-0.92312 0.45358-5.229-0.056582-2.543 0.97461 0.58156 0.79841 0.24251 1.9975 0.49805 2.9844 0.19018 1.2404-0.14193 2.4378 0.037109 3.6523 0.090667 1.151-0.30097 2.1649-1.5195 2.4102v0.007813l0.044922 0.18164c1.2249 0.3137 2.754 0.054515 4.1074 0.14258 1.045 0.084889 2.0908-0.14615 3.1211-0.39258 0.94402-0.075326 1.8969-0.91426 2.4258-1.6973 0.85107-1.2834 1.0491-2.9126 0.77344-4.3965-0.35837-1.317-1.2777-2.5426-2.6289-3.0801-1.32-0.55437-2.8369-0.82993-4.3164-0.78711zm70.363 0.066406c-1.0263 0.069816 0.14035 1.1053 0.85352 1.4648 0.36031 1.2884 1.4559 2.2663 1.752 3.5137 0.79777 0.97878 0.58162 2.2371 0.52734 3.4023 0.40515 1.2403-1.2161 0.98511-1.8418 1.4648l-0.00196-0.009766 0.00977 0.24024c1.4232 0.70329 3.6712-0.14635 5.4258 0.31445 1.2348-0.79907-1.1763-0.74954-1.6133-1.1855-0.60053-0.86513 0.09424-2.0596-0.25-3.0605 0.25432-1.0956 1.2676-1.7271 1.6445-2.7227 0.45496-0.69761 0.86632-1.3397 1.4902-1.9277 1.0542-0.17145 2.6389-1.2434 0.74414-1.3535-1.0194 0.21313-2.0741 0.036711-3.1035 0.13086-1.1861 0.60293 1.7538 0.58948 0.73047 1.791-0.61195 0.78935-1.3106 3.3156-2.3672 2.7148-0.54584-1.2975-2.4721-3.4564-0.33594-4.1406-0.19594-1.0488-2.1455-0.1879-3.082-0.60352-0.24377-0.034288-0.43541-0.043177-0.58203-0.033203zm-101.35 0.12891c-0.92908-0.09965-1.9466 2.8158-1.9844 3.7441-0.60105 1.2771-0.64561 2.7832-1.3359 3.9883-0.12022 1.2412-1.3879 1.6701-2.1621 2.2617v0.003906c0.68517 1.0462 2.2447-0.082879 3.25 0.36719 2.2152-0.17352-0.41638-0.93855-0.4668-1.875 0.021592-1.0733 0.64993-2.246 1.9062-1.9648 1.9581-0.6534 2.6701 1.4464 2.3223 2.9785-2.2354 0.60298 0.38007 0.87635 1.2129 0.68359 0.80183-0.15156 1.6642 0.34047 2.3926-0.037109-0.58416-0.89329-2.457-1.3326-2.3574-3.0703-0.07223-0.77133-0.72518-1.2523-0.73047-2.0156-0.35112-1.5618-1.3026-2.8354-1.4316-4.4531-0.19192-0.40569-0.40083-0.58833-0.61523-0.61133zm23.1 0.097657c-0.87738 0.026292-2.1401 0.24753-2.5957 0.2793-1.4561-0.54641-2.64 0.52496-0.50195 0.82422 0.83856 0.61842 0.4601 1.8051 0.57617 2.707-0.00839 1.1416 0.046716 2.3381-0.13281 3.5117 0.32604 1.028-0.10969 2.4999-1.6211 2.1836-0.36309 1.1233 1.7648 0.53634 2.4609 0.47852 0.048491 0.067654 0.21044 0.01192 0.27148 0.076172 0.615 0.34235 3.4459 0.13081 2.0156-0.79102-1.6487 0.43771-1.3439-1.5396-1.4453-2.5684 0.25242-1.0628-0.12843-2.1283 0-3.2129 0.26523-0.92238-0.59644-2.785 1.2617-2.5996 1.0804-0.7466 0.58832-0.91496-0.28906-0.88867zm-37.438 0.054687c1.2119-0.13599 2.9499 0.62911 3.5332 1.4531 1.1276 0.90578 1.2304 2.344 1.3809 3.6777-0.002948 1.045-0.50959 2.1212-1.0098 3.0176-1.2164 1.5609-4.3567 2.0011-4.8906-0.36523 0.1494-0.83134-0.28594-1.6706-0.17774-2.5254 0.10889-1.2805-0.007134-2.5778-0.085937-3.8594-0.014178-0.91023 0.52284-1.3168 1.25-1.3984zm45.738 0c1.2119-0.13599 2.948 0.62911 3.5312 1.4531 1.1276 0.90578 1.2304 2.344 1.3809 3.6777-0.002949 1.045-0.50959 2.1212-1.0098 3.0176-1.2164 1.5609-4.3567 2.0011-4.8906-0.36523 0.14956-0.83131-0.28399-1.6706-0.17578-2.5254 0.10877-1.2805-0.00905-2.5778-0.087891-3.8594-0.014179-0.91023 0.52479-1.3168 1.252-1.3984zm32.432 0.066406c-0.91079 0.020181-1.6015 0.24182-0.29492 0.8125 1.0961-0.19005 1.4527 1.0252 1.2188 1.8984 0.3278 1.5392-0.02275 2.7308-0.03711 4.2578 0.73911 1.7923-0.95733 2.2362-2.1094 2.6543 0.31193 1.098 1.4378 0.26628 2.168 0.42578 1.5758-0.10432 3.1745 0.012532 4.7422-0.021484 1.1126 0.035112 2.5966 0.11792 2.4043-1.5273 0.61012-2.293-0.89594 0.77869-1.9141 0.88867-1.2131 0.093997-3.0468 0.43556-3.6387-0.96094 0.12189-1.0069-0.43862-2.154 0.22656-3.0312 1.1846-0.15817 2.9934 0.085225 2.9727 1.582 1.1389 0.047168 0.01511-1.9941 0.5332-2.7617 0.05173-2.0447-0.49805 0.52478-1.4961 0.63477-1.0497 0.166-2.6759 0.27034-2.332-1.3535 0.3233-0.98903-0.47075-3.1032 1.2344-2.9121 0.95319 0.12681 2.1678-0.10412 2.6582 0.87305 0.93975 2.0301 1.0687 0.093812 0.67968-1.1035-0.85215-0.27133-1.8426-0.22155-2.7031-0.28516-0.95679-0.080542-1.8365 0.2652-2.8203 0.080078-0.32005-0.10102-0.94572-0.1625-1.4922-0.15039zm28.312 0.072266c1.0776 0.074434 2.1916 0.73086 2.8945 1.4512 0.74401 1.0142 0.8928 2.2891 1.293 3.418 0.02428 1.4053-0.46321 2.914-1.543 3.8535-1.6935 1.2222-4.3167 0.62275-5.2148-1.291-0.3727-0.8784-0.65761-1.764-0.97071-2.7461 6.5e-4 0.13023 0.09867-0.43693 0.11719-0.34766-0.27599-1.4737 0.36878-3.0293 1.6211-3.7324 0.52292-0.48679 1.1562-0.65013 1.8027-0.60547zm-38.441 0.25781c1.2037-0.006001 2.2852 0.98996 2.2324 2.1797 0.034485 1.6224-2.7811 3.1319-3.5332 1.6289 0.11048-0.29445 0.10234-0.63495 0.15234-0.88867-0.1394-0.82277-0.26778-2.474 0.62891-2.8555 0.17398-0.044114 0.34758-0.063595 0.51953-0.064453zm-54.35 1.6582c0.16104-0.025394 0.32498 0.19824 0.48047 0.82031-0.031484 0.89262 1.6948 2.1626 0.45312 2.6211-0.69813-0.17091-2.1051 0.44951-2.0078-0.60547 0.13348-0.45134 0.59108-2.7598 1.0742-2.8359z" fill="#fff" filter="url(#a)" stroke="#fff" stroke-width=".18898"/></g></svg>